# xmcd
#
# Track frame offsets: 
#        150
#        17463
#        42657
#        59485
#        91299
#        104175
#        128365
#        146376
#        160366
#        171250
#        183702
#        200159
#        213921
#        226285
#        239260
#        253824
#        269065
#        281707
#        294425
#        310316
#
# Disc length: 4379 seconds
#
# Revision: 0
# Processed by: cddbd v1.5.2PL0 Copyright (c) Steve Scherf et al.
# Submitted via: ExactAudioCopy v1.0b4
#
DISCID=39111914
DTITLE=Rusty Zinn - Last Train To Bluesville
DYEAR=2016
DGENRE=Blues
TTITLE0=Act Like You Love Me
TTITLE1=Left Me With A Broken Heart
TTITLE2=Date Bait
TTITLE3=I Played The Game
TTITLE4=Sittin' and Waitin'
TTITLE5=Going Back To New Orleans
TTITLE6=Stud Missle
TTITLE7=Can't Hold Out Much Longer
TTITLE8=Gotta Find My Baby
TTITLE9=Crying The Blues
TTITLE10=Express Yourself
TTITLE11=Gumbo Blues
TTITLE12=Jr Jives
TTITLE13=You're The One
TTITLE14=Aw Baby
TTITLE15=Blue Shadows
TTITLE16=I'm Gonna LOve You
TTITLE17=The Woman I Love
TTITLE18=Stand By Me
TTITLE19=Coldstone Talk
EXTD=
EXTT0=
EXTT1=
EXTT2=
EXTT3=
EXTT4=
EXTT5=
EXTT6=
EXTT7=
EXTT8=
EXTT9=
EXTT10=
EXTT11=
EXTT12=
EXTT13=
EXTT14=
EXTT15=
EXTT16=
EXTT17=
EXTT18=
EXTT19=
PLAYORDER=
